<svg class="main-svg" xmlns="http://www.w3.org/2000/svg" xmlns:xlink="http://www.w3.org/1999/xlink" width="700" height="650" style="" viewBox="0 0 700 650"><rect x="0" y="0" width="700" height="650" style="fill: rgb(248, 248, 255); fill-opacity: 1;"/><defs id="defs-b13ab0"><g class="clips"><clipPath id="clipb13ab0xyplot" class="plotclip"><rect width="451" height="500"/></clipPath><clipPath class="axesclip" id="clipb13ab0x"><rect x="169" y="0" width="451" height="650"/></clipPath><clipPath class="axesclip" id="clipb13ab0y"><rect x="0" y="80" width="700" height="500"/></clipPath><clipPath class="axesclip" id="clipb13ab0xy"><rect x="169" y="80" width="451" height="500"/></clipPath></g><g class="gradients"/><g class="patterns"/></defs><g class="bglayer"/><g class="layer-below"><g class="imagelayer"/><g class="shapelayer"/></g><g class="cartesianlayer"><g class="subplot xy"><g class="layer-subplot"><g class="shapelayer"/><g class="imagelayer"/></g><g class="gridlayer"><g class="x"><path class="xgrid crisp" transform="translate(281.75,0)" d="M0,80v500" style="stroke: rgb(221, 221, 221); stroke-opacity: 1; stroke-width: 1px;"/><path class="xgrid crisp" transform="translate(394.5,0)" d="M0,80v500" style="stroke: rgb(221, 221, 221); stroke-opacity: 1; stroke-width: 1px;"/><path class="xgrid crisp" transform="translate(507.25,0)" d="M0,80v500" style="stroke: rgb(221, 221, 221); stroke-opacity: 1; stroke-width: 1px;"/></g><g class="y"/></g><g class="zerolinelayer"/><path class="xlines-below"/><path class="ylines-below"/><g class="overlines-below"/><g class="xaxislayer-below"/><g class="yaxislayer-below"/><g class="overaxes-below"/><g class="plot" transform="translate(169,80)" clip-path="url(#clipb13ab0xyplot)"><g class="barlayer mlayer"><g class="trace bars" style="opacity: 1;"><g class="points"><g class="point"><path d="M-2255,471.05V466.45H208.15V471.05Z" style="vector-effect: non-scaling-stroke; opacity: 0.9; stroke-width: 0.5px; fill: rgb(127, 127, 127); fill-opacity: 1; stroke: rgb(255, 255, 255); stroke-opacity: 1;"/></g><g class="point"><path d="M-2255,448.03V443.42H213.13V448.03Z" style="vector-effect: non-scaling-stroke; opacity: 0.9; stroke-width: 0.5px; fill: rgb(65, 105, 225); fill-opacity: 1; stroke: rgb(255, 255, 255); stroke-opacity: 1;"/></g><g class="point"><path d="M-2255,425V420.39H220.9V425Z" style="vector-effect: non-scaling-stroke; opacity: 0.9; stroke-width: 0.5px; fill: rgb(65, 105, 225); fill-opacity: 1; stroke: rgb(255, 255, 255); stroke-opacity: 1;"/></g><g class="point"><path d="M-2255,401.97V397.37H225.5V401.97Z" style="vector-effect: non-scaling-stroke; opacity: 0.9; stroke-width: 0.5px; fill: rgb(65, 105, 225); fill-opacity: 1; stroke: rgb(255, 255, 255); stroke-opacity: 1;"/></g><g class="point"><path d="M-2255,378.95V374.34H225.5V378.95Z" style="vector-effect: non-scaling-stroke; opacity: 0.9; stroke-width: 0.5px; fill: rgb(127, 127, 127); fill-opacity: 1; stroke: rgb(255, 255, 255); stroke-opacity: 1;"/></g><g class="point"><path d="M-2255,355.92V351.32H225.5V355.92Z" style="vector-effect: non-scaling-stroke; opacity: 0.9; stroke-width: 0.5px; fill: rgb(127, 127, 127); fill-opacity: 1; stroke: rgb(255, 255, 255); stroke-opacity: 1;"/></g><g class="point"><path d="M-2255,332.89V328.29H248.05V332.89Z" style="vector-effect: non-scaling-stroke; opacity: 0.9; stroke-width: 0.5px; fill: rgb(127, 127, 127); fill-opacity: 1; stroke: rgb(255, 255, 255); stroke-opacity: 1;"/></g><g class="point"><path d="M-2255,309.87V305.26H257.71V309.87Z" style="vector-effect: non-scaling-stroke; opacity: 0.9; stroke-width: 0.5px; fill: rgb(65, 105, 225); fill-opacity: 1; stroke: rgb(255, 255, 255); stroke-opacity: 1;"/></g><g class="point"><path d="M-2255,286.84V282.24H263.08V286.84Z" style="vector-effect: non-scaling-stroke; opacity: 0.9; stroke-width: 0.5px; fill: rgb(65, 105, 225); fill-opacity: 1; stroke: rgb(255, 255, 255); stroke-opacity: 1;"/></g><g class="point"><path d="M-2255,263.82V259.21H264.91V263.82Z" style="vector-effect: non-scaling-stroke; opacity: 0.9; stroke-width: 0.5px; fill: rgb(65, 105, 225); fill-opacity: 1; stroke: rgb(255, 255, 255); stroke-opacity: 1;"/></g><g class="point"><path d="M-2255,240.79V236.18H287V240.79Z" style="vector-effect: non-scaling-stroke; opacity: 0.9; stroke-width: 0.5px; fill: rgb(127, 127, 127); fill-opacity: 1; stroke: rgb(255, 255, 255); stroke-opacity: 1;"/></g><g class="point"><path d="M-2255,217.76V213.16H293.15V217.76Z" style="vector-effect: non-scaling-stroke; opacity: 0.9; stroke-width: 0.5px; fill: rgb(65, 105, 225); fill-opacity: 1; stroke: rgb(255, 255, 255); stroke-opacity: 1;"/></g><g class="point"><path d="M-2255,194.74V190.13H294.88V194.74Z" style="vector-effect: non-scaling-stroke; opacity: 0.9; stroke-width: 0.5px; fill: rgb(127, 127, 127); fill-opacity: 1; stroke: rgb(255, 255, 255); stroke-opacity: 1;"/></g><g class="point"><path d="M-2255,171.71V167.11H300.67V171.71Z" style="vector-effect: non-scaling-stroke; opacity: 0.9; stroke-width: 0.5px; fill: rgb(65, 105, 225); fill-opacity: 1; stroke: rgb(255, 255, 255); stroke-opacity: 1;"/></g><g class="point"><path d="M-2255,148.68V144.08H317.75V148.68Z" style="vector-effect: non-scaling-stroke; opacity: 0.9; stroke-width: 0.5px; fill: rgb(65, 105, 225); fill-opacity: 1; stroke: rgb(255, 255, 255); stroke-opacity: 1;"/></g><g class="point"><path d="M-2255,125.66V121.05H319.46V125.66Z" style="vector-effect: non-scaling-stroke; opacity: 0.9; stroke-width: 0.5px; fill: rgb(65, 105, 225); fill-opacity: 1; stroke: rgb(255, 255, 255); stroke-opacity: 1;"/></g><g class="point"><path d="M-2255,102.63V98.03H321.46V102.63Z" style="vector-effect: non-scaling-stroke; opacity: 0.9; stroke-width: 0.5px; fill: rgb(65, 105, 225); fill-opacity: 1; stroke: rgb(255, 255, 255); stroke-opacity: 1;"/></g><g class="point"><path d="M-2255,79.61V75H330.73V79.61Z" style="vector-effect: non-scaling-stroke; opacity: 0.9; stroke-width: 0.5px; fill: rgb(127, 127, 127); fill-opacity: 1; stroke: rgb(255, 255, 255); stroke-opacity: 1;"/></g><g class="point"><path d="M-2255,56.58V51.97H353.53V56.58Z" style="vector-effect: non-scaling-stroke; opacity: 0.9; stroke-width: 0.5px; fill: rgb(65, 105, 225); fill-opacity: 1; stroke: rgb(255, 255, 255); stroke-opacity: 1;"/></g><g class="point"><path d="M-2255,33.55V28.95H390.5V33.55Z" style="vector-effect: non-scaling-stroke; opacity: 0.9; stroke-width: 0.5px; fill: rgb(65, 105, 225); fill-opacity: 1; stroke: rgb(255, 255, 255); stroke-opacity: 1;"/></g></g></g></g><g class="scatterlayer mlayer"><g class="trace scatter tracece0993" style="stroke-miterlimit: 2; opacity: 1;"><g class="fills"/><g class="errorbars"/><g class="lines"/><g class="points"><path class="point" transform="translate(211.76,468.75)" d="M5,0A5,5 0 1,1 0,-5A5,5 0 0,1 5,0Z" style="opacity: 0.9; stroke-width: 1px; fill: rgb(127, 127, 127); fill-opacity: 1; stroke: rgb(0, 0, 0); stroke-opacity: 1;"/><path class="point" transform="translate(216.73,445.72)" d="M5,0A5,5 0 1,1 0,-5A5,5 0 0,1 5,0Z" style="opacity: 0.9; stroke-width: 1px; fill: rgb(65, 105, 225); fill-opacity: 1; stroke: rgb(0, 0, 0); stroke-opacity: 1;"/><path class="point" transform="translate(224.51,422.7)" d="M5,0A5,5 0 1,1 0,-5A5,5 0 0,1 5,0Z" style="opacity: 0.9; stroke-width: 1px; fill: rgb(65, 105, 225); fill-opacity: 1; stroke: rgb(0, 0, 0); stroke-opacity: 1;"/><path class="point" transform="translate(229.11,399.67)" d="M5,0A5,5 0 1,1 0,-5A5,5 0 0,1 5,0Z" style="opacity: 0.9; stroke-width: 1px; fill: rgb(65, 105, 225); fill-opacity: 1; stroke: rgb(0, 0, 0); stroke-opacity: 1;"/><path class="point" transform="translate(229.11,376.64)" d="M5,0A5,5 0 1,1 0,-5A5,5 0 0,1 5,0Z" style="opacity: 0.9; stroke-width: 1px; fill: rgb(127, 127, 127); fill-opacity: 1; stroke: rgb(0, 0, 0); stroke-opacity: 1;"/><path class="point" transform="translate(229.11,353.62)" d="M5,0A5,5 0 1,1 0,-5A5,5 0 0,1 5,0Z" style="opacity: 0.9; stroke-width: 1px; fill: rgb(127, 127, 127); fill-opacity: 1; stroke: rgb(0, 0, 0); stroke-opacity: 1;"/><path class="point" transform="translate(251.66,330.59)" d="M5,0A5,5 0 1,1 0,-5A5,5 0 0,1 5,0Z" style="opacity: 0.9; stroke-width: 1px; fill: rgb(127, 127, 127); fill-opacity: 1; stroke: rgb(0, 0, 0); stroke-opacity: 1;"/><path class="point" transform="translate(261.32,307.57)" d="M5,0A5,5 0 1,1 0,-5A5,5 0 0,1 5,0Z" style="opacity: 0.9; stroke-width: 1px; fill: rgb(65, 105, 225); fill-opacity: 1; stroke: rgb(0, 0, 0); stroke-opacity: 1;"/><path class="point" transform="translate(266.69,284.54)" d="M5,0A5,5 0 1,1 0,-5A5,5 0 0,1 5,0Z" style="opacity: 0.9; stroke-width: 1px; fill: rgb(65, 105, 225); fill-opacity: 1; stroke: rgb(0, 0, 0); stroke-opacity: 1;"/><path class="point" transform="translate(268.52,261.51)" d="M5,0A5,5 0 1,1 0,-5A5,5 0 0,1 5,0Z" style="opacity: 0.9; stroke-width: 1px; fill: rgb(65, 105, 225); fill-opacity: 1; stroke: rgb(0, 0, 0); stroke-opacity: 1;"/><path class="point" transform="translate(290.61,238.49)" d="M5,0A5,5 0 1,1 0,-5A5,5 0 0,1 5,0Z" style="opacity: 0.9; stroke-width: 1px; fill: rgb(127, 127, 127); fill-opacity: 1; stroke: rgb(0, 0, 0); stroke-opacity: 1;"/><path class="point" transform="translate(296.76,215.46)" d="M5,0A5,5 0 1,1 0,-5A5,5 0 0,1 5,0Z" style="opacity: 0.9; stroke-width: 1px; fill: rgb(65, 105, 225); fill-opacity: 1; stroke: rgb(0, 0, 0); stroke-opacity: 1;"/><path class="point" transform="translate(298.49,192.43)" d="M5,0A5,5 0 1,1 0,-5A5,5 0 0,1 5,0Z" style="opacity: 0.9; stroke-width: 1px; fill: rgb(127, 127, 127); fill-opacity: 1; stroke: rgb(0, 0, 0); stroke-opacity: 1;"/><path class="point" transform="translate(304.27,169.41)" d="M5,0A5,5 0 1,1 0,-5A5,5 0 0,1 5,0Z" style="opacity: 0.9; stroke-width: 1px; fill: rgb(65, 105, 225); fill-opacity: 1; stroke: rgb(0, 0, 0); stroke-opacity: 1;"/><path class="point" transform="translate(321.36,146.38)" d="M5,0A5,5 0 1,1 0,-5A5,5 0 0,1 5,0Z" style="opacity: 0.9; stroke-width: 1px; fill: rgb(65, 105, 225); fill-opacity: 1; stroke: rgb(0, 0, 0); stroke-opacity: 1;"/><path class="point" transform="translate(323.07,123.36)" d="M5,0A5,5 0 1,1 0,-5A5,5 0 0,1 5,0Z" style="opacity: 0.9; stroke-width: 1px; fill: rgb(65, 105, 225); fill-opacity: 1; stroke: rgb(0, 0, 0); stroke-opacity: 1;"/><path class="point" transform="translate(325.07,100.33)" d="M5,0A5,5 0 1,1 0,-5A5,5 0 0,1 5,0Z" style="opacity: 0.9; stroke-width: 1px; fill: rgb(65, 105, 225); fill-opacity: 1; stroke: rgb(0, 0, 0); stroke-opacity: 1;"/><path class="point" transform="translate(334.34,77.3)" d="M5,0A5,5 0 1,1 0,-5A5,5 0 0,1 5,0Z" style="opacity: 0.9; stroke-width: 1px; fill: rgb(127, 127, 127); fill-opacity: 1; stroke: rgb(0, 0, 0); stroke-opacity: 1;"/><path class="point" transform="translate(357.13,54.28)" d="M5,0A5,5 0 1,1 0,-5A5,5 0 0,1 5,0Z" style="opacity: 0.9; stroke-width: 1px; fill: rgb(65, 105, 225); fill-opacity: 1; stroke: rgb(0, 0, 0); stroke-opacity: 1;"/><path class="point" transform="translate(394.11,31.25)" d="M5,0A5,5 0 1,1 0,-5A5,5 0 0,1 5,0Z" style="opacity: 0.9; stroke-width: 1px; fill: rgb(65, 105, 225); fill-opacity: 1; stroke: rgb(0, 0, 0); stroke-opacity: 1;"/></g><g class="text"/></g></g></g><g class="overplot"/><path class="xlines-above crisp" d="M0,0" style="fill: none;"/><path class="ylines-above crisp" d="M0,0" style="fill: none;"/><g class="overlines-above"/><g class="xaxislayer-above"><g class="xtick"><text text-anchor="middle" x="0" y="593" transform="translate(169,0)" style="font-family: Sathu; font-size: 12px; fill: rgb(128, 128, 128); fill-opacity: 1; white-space: pre; opacity: 1;">10</text></g><g class="xtick"><text text-anchor="middle" x="0" y="593" style="font-family: Sathu; font-size: 12px; fill: rgb(128, 128, 128); fill-opacity: 1; white-space: pre; opacity: 1;" transform="translate(281.75,0)">10.5</text></g><g class="xtick"><text text-anchor="middle" x="0" y="593" style="font-family: Sathu; font-size: 12px; fill: rgb(128, 128, 128); fill-opacity: 1; white-space: pre; opacity: 1;" transform="translate(394.5,0)">11</text></g><g class="xtick"><text text-anchor="middle" x="0" y="593" style="font-family: Sathu; font-size: 12px; fill: rgb(128, 128, 128); fill-opacity: 1; white-space: pre; opacity: 1;" transform="translate(507.25,0)">11.5</text></g><g class="xtick"><text text-anchor="middle" x="0" y="593" style="font-family: Sathu; font-size: 12px; fill: rgb(128, 128, 128); fill-opacity: 1; white-space: pre; opacity: 1;" transform="translate(620,0)">12</text></g></g><g class="yaxislayer-above"><g class="ytick"><text text-anchor="end" x="168" y="4.199999999999999" transform="translate(0,548.75)" style="font-family: Sathu; font-size: 12px; fill: rgb(42, 63, 95); fill-opacity: 1; white-space: pre; opacity: 1;">Schipperke  </text></g><g class="ytick"><text text-anchor="end" x="168" y="4.199999999999999" transform="translate(0,525.72)" style="font-family: Sathu; font-size: 12px; fill: rgb(42, 63, 95); fill-opacity: 1; white-space: pre; opacity: 1;">Pomeranian  </text></g><g class="ytick"><text text-anchor="end" x="168" y="4.199999999999999" transform="translate(0,502.7)" style="font-family: Sathu; font-size: 12px; fill: rgb(42, 63, 95); fill-opacity: 1; white-space: pre; opacity: 1;">Toy Poodle  </text></g><g class="ytick"><text text-anchor="end" x="168" y="4.199999999999999" transform="translate(0,479.67)" style="font-family: Sathu; font-size: 12px; fill: rgb(42, 63, 95); fill-opacity: 1; white-space: pre; opacity: 1;">German Shepherd  </text></g><g class="ytick"><text text-anchor="end" x="168" y="4.199999999999999" transform="translate(0,456.64)" style="font-family: Sathu; font-size: 12px; fill: rgb(42, 63, 95); fill-opacity: 1; white-space: pre; opacity: 1;">Pekinese  </text></g><g class="ytick"><text text-anchor="end" x="168" y="4.199999999999999" transform="translate(0,433.62)" style="font-family: Sathu; font-size: 12px; fill: rgb(42, 63, 95); fill-opacity: 1; white-space: pre; opacity: 1;">Rottweiler  </text></g><g class="ytick"><text text-anchor="end" x="168" y="4.199999999999999" transform="translate(0,410.59)" style="font-family: Sathu; font-size: 12px; fill: rgb(42, 63, 95); fill-opacity: 1; white-space: pre; opacity: 1;">Blenheim Spaniel  </text></g><g class="ytick"><text text-anchor="end" x="168" y="4.199999999999999" transform="translate(0,387.57)" style="font-family: Sathu; font-size: 12px; fill: rgb(42, 63, 95); fill-opacity: 1; white-space: pre; opacity: 1;">Cardigan  </text></g><g class="ytick"><text text-anchor="end" x="168" y="4.199999999999999" transform="translate(0,364.54)" style="font-family: Sathu; font-size: 12px; fill: rgb(42, 63, 95); fill-opacity: 1; white-space: pre; opacity: 1;">French Bulldog  </text></g><g class="ytick"><text text-anchor="end" x="168" y="4.199999999999999" transform="translate(0,341.51)" style="font-family: Sathu; font-size: 12px; fill: rgb(42, 63, 95); fill-opacity: 1; white-space: pre; opacity: 1;">Labrador Retriever  </text></g><g class="ytick"><text text-anchor="end" x="168" y="4.199999999999999" transform="translate(0,318.49)" style="font-family: Sathu; font-size: 12px; fill: rgb(42, 63, 95); fill-opacity: 1; white-space: pre; opacity: 1;">Bernese Mountain Dog  </text></g><g class="ytick"><text text-anchor="end" x="168" y="4.199999999999999" transform="translate(0,295.46000000000004)" style="font-family: Sathu; font-size: 12px; fill: rgb(42, 63, 95); fill-opacity: 1; white-space: pre; opacity: 1;">Siberian Husky  </text></g><g class="ytick"><text text-anchor="end" x="168" y="4.199999999999999" transform="translate(0,272.43)" style="font-family: Sathu; font-size: 12px; fill: rgb(42, 63, 95); fill-opacity: 1; white-space: pre; opacity: 1;">Kelpie  </text></g><g class="ytick"><text text-anchor="end" x="168" y="4.199999999999999" transform="translate(0,249.41)" style="font-family: Sathu; font-size: 12px; fill: rgb(42, 63, 95); fill-opacity: 1; white-space: pre; opacity: 1;">Cocker Spaniel  </text></g><g class="ytick"><text text-anchor="end" x="168" y="4.199999999999999" transform="translate(0,226.38)" style="font-family: Sathu; font-size: 12px; fill: rgb(42, 63, 95); fill-opacity: 1; white-space: pre; opacity: 1;">Eskimo Dog  </text></g><g class="ytick"><text text-anchor="end" x="168" y="4.199999999999999" transform="translate(0,203.36)" style="font-family: Sathu; font-size: 12px; fill: rgb(42, 63, 95); fill-opacity: 1; white-space: pre; opacity: 1;">Chow  </text></g><g class="ytick"><text text-anchor="end" x="168" y="4.199999999999999" transform="translate(0,180.32999999999998)" style="font-family: Sathu; font-size: 12px; fill: rgb(42, 63, 95); fill-opacity: 1; white-space: pre; opacity: 1;">Pembroke  </text></g><g class="ytick"><text text-anchor="end" x="168" y="4.199999999999999" transform="translate(0,157.3)" style="font-family: Sathu; font-size: 12px; fill: rgb(42, 63, 95); fill-opacity: 1; white-space: pre; opacity: 1;">Great Pyrenees  </text></g><g class="ytick"><text text-anchor="end" x="168" y="4.199999999999999" transform="translate(0,134.28)" style="font-family: Sathu; font-size: 12px; fill: rgb(42, 63, 95); fill-opacity: 1; white-space: pre; opacity: 1;">Golden Retriever  </text></g><g class="ytick"><text text-anchor="end" x="168" y="4.199999999999999" transform="translate(0,111.25)" style="font-family: Sathu; font-size: 12px; fill: rgb(42, 63, 95); fill-opacity: 1; white-space: pre; opacity: 1;">Samoyed  </text></g></g><g class="overaxes-above"/></g></g><g class="polarlayer"/><g class="smithlayer"/><g class="ternarylayer"/><g class="geolayer"/><g class="funnelarealayer"/><g class="pielayer"/><g class="iciclelayer"/><g class="treemaplayer"/><g class="sunburstlayer"/><g class="glimages"/><defs id="topdefs-b13ab0"><g class="clips"/></defs><g class="layer-above"><g class="imagelayer"/><g class="shapelayer"><path data-index="0" fill-rule="evenodd" d="M169,580L169,80" clip-path="url(#clipb13ab0x)" style="opacity: 1; stroke: rgb(42, 63, 95); stroke-opacity: 1; fill: rgb(0, 0, 0); fill-opacity: 0; stroke-width: 2px;"/></g></g><g class="infolayer"><g class="g-gtitle"><text class="gtitle" x="35" y="40" text-anchor="start" dy="0em" style="font-family: Sathu; font-size: 17px; fill: rgb(42, 63, 95); opacity: 1; font-weight: normal; white-space: pre;"><tspan class="line" dy="0em" x="35" y="40">Top 20 Breeds by Average Rating</tspan><tspan class="line" dy="1.3em" x="35" y="40">​<tspan style="font-size:70%" dy="-0.6em">The blue bars represent breeds that are also present on the popular 20 list.</tspan><tspan dy="0.42em">​</tspan></tspan></text></g><g class="g-xtitle"><text class="xtitle" x="394.5" y="621.8" text-anchor="middle" style="font-family: Sathu; font-size: 14px; fill: rgb(42, 63, 95); opacity: 1; font-weight: normal; white-space: pre;">Rating</text></g><g class="g-ytitle"/><g class="annotation" data-index="0" style="opacity: 1;"><g class="annotation-text-g" transform="rotate(0,169,70.5)"><g class="cursor-pointer" transform="translate(104,61)"><rect class="bg" x="0.5" y="0.5" width="129" height="18" style="stroke-width: 1px; stroke: rgb(0, 0, 0); stroke-opacity: 0; fill: rgb(0, 0, 0); fill-opacity: 0;"/><text class="annotation-text" text-anchor="middle" x="64.96875" y="13" style="font-family: Sathu; font-size: 12px; fill: rgb(205, 92, 92); fill-opacity: 1; white-space: pre;"><tspan style="font-weight:bold">Common denominator</tspan></text></g></g></g></g></svg>