<svg class="main-svg" xmlns="http://www.w3.org/2000/svg" xmlns:xlink="http://www.w3.org/1999/xlink" width="700" height="650" style="" viewBox="0 0 700 650"><rect x="0" y="0" width="700" height="650" style="fill: rgb(248, 248, 255); fill-opacity: 1;"/><defs id="defs-f6b0d7"><g class="clips"><clipPath id="clipf6b0d7xyplot" class="plotclip"><rect width="453" height="500"/></clipPath><clipPath class="axesclip" id="clipf6b0d7x"><rect x="167" y="0" width="453" height="650"/></clipPath><clipPath class="axesclip" id="clipf6b0d7y"><rect x="0" y="80" width="700" height="500"/></clipPath><clipPath class="axesclip" id="clipf6b0d7xy"><rect x="167" y="80" width="453" height="500"/></clipPath></g><g class="gradients"/><g class="patterns"/></defs><g class="bglayer"/><g class="layer-below"><g class="imagelayer"/><g class="shapelayer"/></g><g class="cartesianlayer"><g class="subplot xy"><g class="layer-subplot"><g class="shapelayer"/><g class="imagelayer"/></g><g class="gridlayer"><g class="x"><path class="xgrid crisp" transform="translate(280.25,0)" d="M0,80v500" style="stroke: rgb(221, 221, 221); stroke-opacity: 1; stroke-width: 1px;"/><path class="xgrid crisp" transform="translate(393.5,0)" d="M0,80v500" style="stroke: rgb(221, 221, 221); stroke-opacity: 1; stroke-width: 1px;"/><path class="xgrid crisp" transform="translate(506.75,0)" d="M0,80v500" style="stroke: rgb(221, 221, 221); stroke-opacity: 1; stroke-width: 1px;"/></g><g class="y"/></g><g class="zerolinelayer"/><path class="xlines-below"/><path class="ylines-below"/><g class="overlines-below"/><g class="xaxislayer-below"/><g class="yaxislayer-below"/><g class="overaxes-below"/><g class="plot" transform="translate(167,80)" clip-path="url(#clipf6b0d7xyplot)"><g class="barlayer mlayer"><g class="trace bars" style="opacity: 1;"><g class="points"><g class="point"><path d="M-2265,471.05V466.45H209.08V471.05Z" style="vector-effect: non-scaling-stroke; opacity: 0.9; stroke-width: 0.5px; fill: rgb(127, 127, 127); fill-opacity: 1; stroke: rgb(255, 255, 255); stroke-opacity: 1;"/></g><g class="point"><path d="M-2265,448.03V443.42H214.07V448.03Z" style="vector-effect: non-scaling-stroke; opacity: 0.9; stroke-width: 0.5px; fill: rgb(65, 105, 225); fill-opacity: 1; stroke: rgb(255, 255, 255); stroke-opacity: 1;"/></g><g class="point"><path d="M-2265,425V420.39H221.88V425Z" style="vector-effect: non-scaling-stroke; opacity: 0.9; stroke-width: 0.5px; fill: rgb(65, 105, 225); fill-opacity: 1; stroke: rgb(255, 255, 255); stroke-opacity: 1;"/></g><g class="point"><path d="M-2265,401.97V397.37H226.5V401.97Z" style="vector-effect: non-scaling-stroke; opacity: 0.9; stroke-width: 0.5px; fill: rgb(65, 105, 225); fill-opacity: 1; stroke: rgb(255, 255, 255); stroke-opacity: 1;"/></g><g class="point"><path d="M-2265,378.95V374.34H226.5V378.95Z" style="vector-effect: non-scaling-stroke; opacity: 0.9; stroke-width: 0.5px; fill: rgb(127, 127, 127); fill-opacity: 1; stroke: rgb(255, 255, 255); stroke-opacity: 1;"/></g><g class="point"><path d="M-2265,355.92V351.32H226.5V355.92Z" style="vector-effect: non-scaling-stroke; opacity: 0.9; stroke-width: 0.5px; fill: rgb(127, 127, 127); fill-opacity: 1; stroke: rgb(255, 255, 255); stroke-opacity: 1;"/></g><g class="point"><path d="M-2265,332.89V328.29H249.15V332.89Z" style="vector-effect: non-scaling-stroke; opacity: 0.9; stroke-width: 0.5px; fill: rgb(127, 127, 127); fill-opacity: 1; stroke: rgb(255, 255, 255); stroke-opacity: 1;"/></g><g class="point"><path d="M-2265,309.87V305.26H258.86V309.87Z" style="vector-effect: non-scaling-stroke; opacity: 0.9; stroke-width: 0.5px; fill: rgb(65, 105, 225); fill-opacity: 1; stroke: rgb(255, 255, 255); stroke-opacity: 1;"/></g><g class="point"><path d="M-2265,286.84V282.24H264.25V286.84Z" style="vector-effect: non-scaling-stroke; opacity: 0.9; stroke-width: 0.5px; fill: rgb(65, 105, 225); fill-opacity: 1; stroke: rgb(255, 255, 255); stroke-opacity: 1;"/></g><g class="point"><path d="M-2265,263.82V259.21H266.08V263.82Z" style="vector-effect: non-scaling-stroke; opacity: 0.9; stroke-width: 0.5px; fill: rgb(65, 105, 225); fill-opacity: 1; stroke: rgb(255, 255, 255); stroke-opacity: 1;"/></g><g class="point"><path d="M-2265,240.79V236.18H288.27V240.79Z" style="vector-effect: non-scaling-stroke; opacity: 0.9; stroke-width: 0.5px; fill: rgb(127, 127, 127); fill-opacity: 1; stroke: rgb(255, 255, 255); stroke-opacity: 1;"/></g><g class="point"><path d="M-2265,217.76V213.16H294.45V217.76Z" style="vector-effect: non-scaling-stroke; opacity: 0.9; stroke-width: 0.5px; fill: rgb(65, 105, 225); fill-opacity: 1; stroke: rgb(255, 255, 255); stroke-opacity: 1;"/></g><g class="point"><path d="M-2265,194.74V190.13H296.19V194.74Z" style="vector-effect: non-scaling-stroke; opacity: 0.9; stroke-width: 0.5px; fill: rgb(127, 127, 127); fill-opacity: 1; stroke: rgb(255, 255, 255); stroke-opacity: 1;"/></g><g class="point"><path d="M-2265,171.71V167.11H302V171.71Z" style="vector-effect: non-scaling-stroke; opacity: 0.9; stroke-width: 0.5px; fill: rgb(65, 105, 225); fill-opacity: 1; stroke: rgb(255, 255, 255); stroke-opacity: 1;"/></g><g class="point"><path d="M-2265,148.68V144.08H319.16V148.68Z" style="vector-effect: non-scaling-stroke; opacity: 0.9; stroke-width: 0.5px; fill: rgb(65, 105, 225); fill-opacity: 1; stroke: rgb(255, 255, 255); stroke-opacity: 1;"/></g><g class="point"><path d="M-2265,125.66V121.05H320.88V125.66Z" style="vector-effect: non-scaling-stroke; opacity: 0.9; stroke-width: 0.5px; fill: rgb(65, 105, 225); fill-opacity: 1; stroke: rgb(255, 255, 255); stroke-opacity: 1;"/></g><g class="point"><path d="M-2265,102.63V98.03H322.88V102.63Z" style="vector-effect: non-scaling-stroke; opacity: 0.9; stroke-width: 0.5px; fill: rgb(65, 105, 225); fill-opacity: 1; stroke: rgb(255, 255, 255); stroke-opacity: 1;"/></g><g class="point"><path d="M-2265,79.61V75H332.2V79.61Z" style="vector-effect: non-scaling-stroke; opacity: 0.9; stroke-width: 0.5px; fill: rgb(127, 127, 127); fill-opacity: 1; stroke: rgb(255, 255, 255); stroke-opacity: 1;"/></g><g class="point"><path d="M-2265,56.58V51.97H355.09V56.58Z" style="vector-effect: non-scaling-stroke; opacity: 0.9; stroke-width: 0.5px; fill: rgb(65, 105, 225); fill-opacity: 1; stroke: rgb(255, 255, 255); stroke-opacity: 1;"/></g><g class="point"><path d="M-2265,33.55V28.95H392.23V33.55Z" style="vector-effect: non-scaling-stroke; opacity: 0.9; stroke-width: 0.5px; fill: rgb(65, 105, 225); fill-opacity: 1; stroke: rgb(255, 255, 255); stroke-opacity: 1;"/></g></g></g></g><g class="scatterlayer mlayer"><g class="trace scatter trace2dd79e" style="stroke-miterlimit: 2; opacity: 1;"><g class="fills"/><g class="errorbars"/><g class="lines"/><g class="points"><path class="point" transform="translate(212.7,468.75)" d="M5,0A5,5 0 1,1 0,-5A5,5 0 0,1 5,0Z" style="opacity: 0.9; stroke-width: 1px; fill: rgb(127, 127, 127); fill-opacity: 1; stroke: rgb(0, 0, 0); stroke-opacity: 1;"/><path class="point" transform="translate(217.69,445.72)" d="M5,0A5,5 0 1,1 0,-5A5,5 0 0,1 5,0Z" style="opacity: 0.9; stroke-width: 1px; fill: rgb(65, 105, 225); fill-opacity: 1; stroke: rgb(0, 0, 0); stroke-opacity: 1;"/><path class="point" transform="translate(225.5,422.7)" d="M5,0A5,5 0 1,1 0,-5A5,5 0 0,1 5,0Z" style="opacity: 0.9; stroke-width: 1px; fill: rgb(65, 105, 225); fill-opacity: 1; stroke: rgb(0, 0, 0); stroke-opacity: 1;"/><path class="point" transform="translate(230.12,399.67)" d="M5,0A5,5 0 1,1 0,-5A5,5 0 0,1 5,0Z" style="opacity: 0.9; stroke-width: 1px; fill: rgb(65, 105, 225); fill-opacity: 1; stroke: rgb(0, 0, 0); stroke-opacity: 1;"/><path class="point" transform="translate(230.12,376.64)" d="M5,0A5,5 0 1,1 0,-5A5,5 0 0,1 5,0Z" style="opacity: 0.9; stroke-width: 1px; fill: rgb(127, 127, 127); fill-opacity: 1; stroke: rgb(0, 0, 0); stroke-opacity: 1;"/><path class="point" transform="translate(230.12,353.62)" d="M5,0A5,5 0 1,1 0,-5A5,5 0 0,1 5,0Z" style="opacity: 0.9; stroke-width: 1px; fill: rgb(127, 127, 127); fill-opacity: 1; stroke: rgb(0, 0, 0); stroke-opacity: 1;"/><path class="point" transform="translate(252.77,330.59)" d="M5,0A5,5 0 1,1 0,-5A5,5 0 0,1 5,0Z" style="opacity: 0.9; stroke-width: 1px; fill: rgb(127, 127, 127); fill-opacity: 1; stroke: rgb(0, 0, 0); stroke-opacity: 1;"/><path class="point" transform="translate(262.48,307.57)" d="M5,0A5,5 0 1,1 0,-5A5,5 0 0,1 5,0Z" style="opacity: 0.9; stroke-width: 1px; fill: rgb(65, 105, 225); fill-opacity: 1; stroke: rgb(0, 0, 0); stroke-opacity: 1;"/><path class="point" transform="translate(267.87,284.54)" d="M5,0A5,5 0 1,1 0,-5A5,5 0 0,1 5,0Z" style="opacity: 0.9; stroke-width: 1px; fill: rgb(65, 105, 225); fill-opacity: 1; stroke: rgb(0, 0, 0); stroke-opacity: 1;"/><path class="point" transform="translate(269.71,261.51)" d="M5,0A5,5 0 1,1 0,-5A5,5 0 0,1 5,0Z" style="opacity: 0.9; stroke-width: 1px; fill: rgb(65, 105, 225); fill-opacity: 1; stroke: rgb(0, 0, 0); stroke-opacity: 1;"/><path class="point" transform="translate(291.9,238.49)" d="M5,0A5,5 0 1,1 0,-5A5,5 0 0,1 5,0Z" style="opacity: 0.9; stroke-width: 1px; fill: rgb(127, 127, 127); fill-opacity: 1; stroke: rgb(0, 0, 0); stroke-opacity: 1;"/><path class="point" transform="translate(298.07,215.46)" d="M5,0A5,5 0 1,1 0,-5A5,5 0 0,1 5,0Z" style="opacity: 0.9; stroke-width: 1px; fill: rgb(65, 105, 225); fill-opacity: 1; stroke: rgb(0, 0, 0); stroke-opacity: 1;"/><path class="point" transform="translate(299.82,192.43)" d="M5,0A5,5 0 1,1 0,-5A5,5 0 0,1 5,0Z" style="opacity: 0.9; stroke-width: 1px; fill: rgb(127, 127, 127); fill-opacity: 1; stroke: rgb(0, 0, 0); stroke-opacity: 1;"/><path class="point" transform="translate(305.62,169.41)" d="M5,0A5,5 0 1,1 0,-5A5,5 0 0,1 5,0Z" style="opacity: 0.9; stroke-width: 1px; fill: rgb(65, 105, 225); fill-opacity: 1; stroke: rgb(0, 0, 0); stroke-opacity: 1;"/><path class="point" transform="translate(322.78,146.38)" d="M5,0A5,5 0 1,1 0,-5A5,5 0 0,1 5,0Z" style="opacity: 0.9; stroke-width: 1px; fill: rgb(65, 105, 225); fill-opacity: 1; stroke: rgb(0, 0, 0); stroke-opacity: 1;"/><path class="point" transform="translate(324.5,123.36)" d="M5,0A5,5 0 1,1 0,-5A5,5 0 0,1 5,0Z" style="opacity: 0.9; stroke-width: 1px; fill: rgb(65, 105, 225); fill-opacity: 1; stroke: rgb(0, 0, 0); stroke-opacity: 1;"/><path class="point" transform="translate(326.51,100.33)" d="M5,0A5,5 0 1,1 0,-5A5,5 0 0,1 5,0Z" style="opacity: 0.9; stroke-width: 1px; fill: rgb(65, 105, 225); fill-opacity: 1; stroke: rgb(0, 0, 0); stroke-opacity: 1;"/><path class="point" transform="translate(335.82,77.3)" d="M5,0A5,5 0 1,1 0,-5A5,5 0 0,1 5,0Z" style="opacity: 0.9; stroke-width: 1px; fill: rgb(127, 127, 127); fill-opacity: 1; stroke: rgb(0, 0, 0); stroke-opacity: 1;"/><path class="point" transform="translate(358.72,54.28)" d="M5,0A5,5 0 1,1 0,-5A5,5 0 0,1 5,0Z" style="opacity: 0.9; stroke-width: 1px; fill: rgb(65, 105, 225); fill-opacity: 1; stroke: rgb(0, 0, 0); stroke-opacity: 1;"/><path class="point" transform="translate(395.86,31.25)" d="M5,0A5,5 0 1,1 0,-5A5,5 0 0,1 5,0Z" style="opacity: 0.9; stroke-width: 1px; fill: rgb(65, 105, 225); fill-opacity: 1; stroke: rgb(0, 0, 0); stroke-opacity: 1;"/></g><g class="text"/></g></g></g><g class="overplot"/><path class="xlines-above crisp" d="M0,0" style="fill: none;"/><path class="ylines-above crisp" d="M0,0" style="fill: none;"/><g class="overlines-above"/><g class="xaxislayer-above"><g class="xtick"><text text-anchor="middle" x="0" y="593" transform="translate(167,0)" style="font-family: Arial; font-size: 12px; fill: rgb(128, 128, 128); fill-opacity: 1; white-space: pre; opacity: 1;">10</text></g><g class="xtick"><text text-anchor="middle" x="0" y="593" style="font-family: Arial; font-size: 12px; fill: rgb(128, 128, 128); fill-opacity: 1; white-space: pre; opacity: 1;" transform="translate(280.25,0)">10.5</text></g><g class="xtick"><text text-anchor="middle" x="0" y="593" style="font-family: Arial; font-size: 12px; fill: rgb(128, 128, 128); fill-opacity: 1; white-space: pre; opacity: 1;" transform="translate(393.5,0)">11</text></g><g class="xtick"><text text-anchor="middle" x="0" y="593" style="font-family: Arial; font-size: 12px; fill: rgb(128, 128, 128); fill-opacity: 1; white-space: pre; opacity: 1;" transform="translate(506.75,0)">11.5</text></g><g class="xtick"><text text-anchor="middle" x="0" y="593" style="font-family: Arial; font-size: 12px; fill: rgb(128, 128, 128); fill-opacity: 1; white-space: pre; opacity: 1;" transform="translate(620,0)">12</text></g></g><g class="yaxislayer-above"><g class="ytick"><text text-anchor="end" x="166" y="4.199999999999999" transform="translate(0,548.75)" style="font-family: Arial; font-size: 12px; fill: rgb(42, 63, 95); fill-opacity: 1; white-space: pre; opacity: 1;">Schipperke  </text></g><g class="ytick"><text text-anchor="end" x="166" y="4.199999999999999" transform="translate(0,525.72)" style="font-family: Arial; font-size: 12px; fill: rgb(42, 63, 95); fill-opacity: 1; white-space: pre; opacity: 1;">Pomeranian  </text></g><g class="ytick"><text text-anchor="end" x="166" y="4.199999999999999" transform="translate(0,502.7)" style="font-family: Arial; font-size: 12px; fill: rgb(42, 63, 95); fill-opacity: 1; white-space: pre; opacity: 1;">Toy Poodle  </text></g><g class="ytick"><text text-anchor="end" x="166" y="4.199999999999999" transform="translate(0,479.67)" style="font-family: Arial; font-size: 12px; fill: rgb(42, 63, 95); fill-opacity: 1; white-space: pre; opacity: 1;">German Shepherd  </text></g><g class="ytick"><text text-anchor="end" x="166" y="4.199999999999999" transform="translate(0,456.64)" style="font-family: Arial; font-size: 12px; fill: rgb(42, 63, 95); fill-opacity: 1; white-space: pre; opacity: 1;">Pekinese  </text></g><g class="ytick"><text text-anchor="end" x="166" y="4.199999999999999" transform="translate(0,433.62)" style="font-family: Arial; font-size: 12px; fill: rgb(42, 63, 95); fill-opacity: 1; white-space: pre; opacity: 1;">Rottweiler  </text></g><g class="ytick"><text text-anchor="end" x="166" y="4.199999999999999" transform="translate(0,410.59)" style="font-family: Arial; font-size: 12px; fill: rgb(42, 63, 95); fill-opacity: 1; white-space: pre; opacity: 1;">Blenheim Spaniel  </text></g><g class="ytick"><text text-anchor="end" x="166" y="4.199999999999999" transform="translate(0,387.57)" style="font-family: Arial; font-size: 12px; fill: rgb(42, 63, 95); fill-opacity: 1; white-space: pre; opacity: 1;">Cardigan  </text></g><g class="ytick"><text text-anchor="end" x="166" y="4.199999999999999" transform="translate(0,364.54)" style="font-family: Arial; font-size: 12px; fill: rgb(42, 63, 95); fill-opacity: 1; white-space: pre; opacity: 1;">French Bulldog  </text></g><g class="ytick"><text text-anchor="end" x="166" y="4.199999999999999" transform="translate(0,341.51)" style="font-family: Arial; font-size: 12px; fill: rgb(42, 63, 95); fill-opacity: 1; white-space: pre; opacity: 1;">Labrador Retriever  </text></g><g class="ytick"><text text-anchor="end" x="166" y="4.199999999999999" transform="translate(0,318.49)" style="font-family: Arial; font-size: 12px; fill: rgb(42, 63, 95); fill-opacity: 1; white-space: pre; opacity: 1;">Bernese Mountain Dog  </text></g><g class="ytick"><text text-anchor="end" x="166" y="4.199999999999999" transform="translate(0,295.46000000000004)" style="font-family: Arial; font-size: 12px; fill: rgb(42, 63, 95); fill-opacity: 1; white-space: pre; opacity: 1;">Siberian Husky  </text></g><g class="ytick"><text text-anchor="end" x="166" y="4.199999999999999" transform="translate(0,272.43)" style="font-family: Arial; font-size: 12px; fill: rgb(42, 63, 95); fill-opacity: 1; white-space: pre; opacity: 1;">Kelpie  </text></g><g class="ytick"><text text-anchor="end" x="166" y="4.199999999999999" transform="translate(0,249.41)" style="font-family: Arial; font-size: 12px; fill: rgb(42, 63, 95); fill-opacity: 1; white-space: pre; opacity: 1;">Cocker Spaniel  </text></g><g class="ytick"><text text-anchor="end" x="166" y="4.199999999999999" transform="translate(0,226.38)" style="font-family: Arial; font-size: 12px; fill: rgb(42, 63, 95); fill-opacity: 1; white-space: pre; opacity: 1;">Eskimo Dog  </text></g><g class="ytick"><text text-anchor="end" x="166" y="4.199999999999999" transform="translate(0,203.36)" style="font-family: Arial; font-size: 12px; fill: rgb(42, 63, 95); fill-opacity: 1; white-space: pre; opacity: 1;">Chow  </text></g><g class="ytick"><text text-anchor="end" x="166" y="4.199999999999999" transform="translate(0,180.32999999999998)" style="font-family: Arial; font-size: 12px; fill: rgb(42, 63, 95); fill-opacity: 1; white-space: pre; opacity: 1;">Pembroke  </text></g><g class="ytick"><text text-anchor="end" x="166" y="4.199999999999999" transform="translate(0,157.3)" style="font-family: Arial; font-size: 12px; fill: rgb(42, 63, 95); fill-opacity: 1; white-space: pre; opacity: 1;">Great Pyrenees  </text></g><g class="ytick"><text text-anchor="end" x="166" y="4.199999999999999" transform="translate(0,134.28)" style="font-family: Arial; font-size: 12px; fill: rgb(42, 63, 95); fill-opacity: 1; white-space: pre; opacity: 1;">Golden Retriever  </text></g><g class="ytick"><text text-anchor="end" x="166" y="4.199999999999999" transform="translate(0,111.25)" style="font-family: Arial; font-size: 12px; fill: rgb(42, 63, 95); fill-opacity: 1; white-space: pre; opacity: 1;">Samoyed  </text></g></g><g class="overaxes-above"/></g></g><g class="polarlayer"/><g class="smithlayer"/><g class="ternarylayer"/><g class="geolayer"/><g class="funnelarealayer"/><g class="pielayer"/><g class="iciclelayer"/><g class="treemaplayer"/><g class="sunburstlayer"/><g class="glimages"/><defs id="topdefs-f6b0d7"><g class="clips"/></defs><g class="layer-above"><g class="imagelayer"/><g class="shapelayer"><path data-index="0" fill-rule="evenodd" d="M167,580L167,80" clip-path="url(#clipf6b0d7x)" style="opacity: 1; stroke: rgb(42, 63, 95); stroke-opacity: 1; fill: rgb(0, 0, 0); fill-opacity: 0; stroke-width: 2px;"/></g></g><g class="infolayer"><g class="g-gtitle"><text class="gtitle" x="35" y="40" text-anchor="start" dy="0em" style="font-family: Arial; font-size: 17px; fill: rgb(42, 63, 95); opacity: 1; font-weight: normal; white-space: pre;"><tspan class="line" dy="0em" x="35" y="40">Top 20 Breeds by Average Rating</tspan><tspan class="line" dy="1.3em" x="35" y="40">​<tspan style="font-size:70%" dy="-0.6em">The blue bars represent breeds that are also present on the popular 20 list.</tspan><tspan dy="0.42em">​</tspan></tspan></text></g><g class="g-xtitle"><text class="xtitle" x="393.5" y="620.3" text-anchor="middle" style="font-family: Arial; font-size: 14px; fill: rgb(42, 63, 95); opacity: 1; font-weight: normal; white-space: pre;">Rating</text></g><g class="g-ytitle"/><g class="annotation" data-index="0" style="opacity: 1;"><g class="annotation-text-g" transform="rotate(0,167,71)"><g class="cursor-pointer" transform="translate(101,62)"><rect class="bg" x="0.5" y="0.5" width="131" height="17" style="stroke-width: 1px; stroke: rgb(0, 0, 0); stroke-opacity: 0; fill: rgb(0, 0, 0); fill-opacity: 0;"/><text class="annotation-text" text-anchor="middle" x="66" y="13" style="font-family: Arial; font-size: 12px; fill: rgb(205, 92, 92); fill-opacity: 1; white-space: pre;"><tspan style="font-weight:bold">Common denominator</tspan></text></g></g></g></g></svg>