<svg class="main-svg" xmlns="http://www.w3.org/2000/svg" xmlns:xlink="http://www.w3.org/1999/xlink" width="1400" height="850" style="" viewBox="0 0 1400 850"><rect x="0" y="0" width="1400" height="850" style="fill: rgb(248, 248, 255); fill-opacity: 1;"/><defs id="defs-2e347a"><g class="clips"><clipPath id="clip2e347axyplot" class="plotclip"><rect width="1240" height="710"/></clipPath><clipPath class="axesclip" id="clip2e347ax"><rect x="80" y="0" width="1240" height="850"/></clipPath><clipPath class="axesclip" id="clip2e347ay"><rect x="0" y="70" width="1400" height="710"/></clipPath><clipPath class="axesclip" id="clip2e347axy"><rect x="80" y="70" width="1240" height="710"/></clipPath></g><g class="gradients"/><g class="patterns"/></defs><g class="bglayer"/><g class="layer-below"><g class="imagelayer"/><g class="shapelayer"/></g><g class="cartesianlayer"><g class="subplot xy"><g class="layer-subplot"><g class="shapelayer"/><g class="imagelayer"/></g><g class="gridlayer"><g class="x"><path class="xgrid crisp" transform="translate(277.64,0)" d="M0,70v710" style="stroke: rgb(221, 221, 221); stroke-opacity: 1; stroke-width: 1px;"/><path class="xgrid crisp" transform="translate(415.55,0)" d="M0,70v710" style="stroke: rgb(221, 221, 221); stroke-opacity: 1; stroke-width: 1px;"/><path class="xgrid crisp" transform="translate(553.46,0)" d="M0,70v710" style="stroke: rgb(221, 221, 221); stroke-opacity: 1; stroke-width: 1px;"/><path class="xgrid crisp" transform="translate(691.37,0)" d="M0,70v710" style="stroke: rgb(221, 221, 221); stroke-opacity: 1; stroke-width: 1px;"/><path class="xgrid crisp" transform="translate(829.28,0)" d="M0,70v710" style="stroke: rgb(221, 221, 221); stroke-opacity: 1; stroke-width: 1px;"/><path class="xgrid crisp" transform="translate(967.2,0)" d="M0,70v710" style="stroke: rgb(221, 221, 221); stroke-opacity: 1; stroke-width: 1px;"/><path class="xgrid crisp" transform="translate(1105.11,0)" d="M0,70v710" style="stroke: rgb(221, 221, 221); stroke-opacity: 1; stroke-width: 1px;"/><path class="xgrid crisp" transform="translate(1243.02,0)" d="M0,70v710" style="stroke: rgb(221, 221, 221); stroke-opacity: 1; stroke-width: 1px;"/></g><g class="y"><path class="ygrid crisp" transform="translate(0,731.11)" d="M80,0h1240" style="stroke: rgb(221, 221, 221); stroke-opacity: 1; stroke-width: 1px;"/><path class="ygrid crisp" transform="translate(0,683.21)" d="M80,0h1240" style="stroke: rgb(221, 221, 221); stroke-opacity: 1; stroke-width: 1px;"/><path class="ygrid crisp" transform="translate(0,635.32)" d="M80,0h1240" style="stroke: rgb(221, 221, 221); stroke-opacity: 1; stroke-width: 1px;"/><path class="ygrid crisp" transform="translate(0,587.43)" d="M80,0h1240" style="stroke: rgb(221, 221, 221); stroke-opacity: 1; stroke-width: 1px;"/><path class="ygrid crisp" transform="translate(0,539.54)" d="M80,0h1240" style="stroke: rgb(221, 221, 221); stroke-opacity: 1; stroke-width: 1px;"/><path class="ygrid crisp" transform="translate(0,491.64)" d="M80,0h1240" style="stroke: rgb(221, 221, 221); stroke-opacity: 1; stroke-width: 1px;"/><path class="ygrid crisp" transform="translate(0,443.75)" d="M80,0h1240" style="stroke: rgb(221, 221, 221); stroke-opacity: 1; stroke-width: 1px;"/><path class="ygrid crisp" transform="translate(0,395.86)" d="M80,0h1240" style="stroke: rgb(221, 221, 221); stroke-opacity: 1; stroke-width: 1px;"/><path class="ygrid crisp" transform="translate(0,347.96)" d="M80,0h1240" style="stroke: rgb(221, 221, 221); stroke-opacity: 1; stroke-width: 1px;"/><path class="ygrid crisp" transform="translate(0,300.07)" d="M80,0h1240" style="stroke: rgb(221, 221, 221); stroke-opacity: 1; stroke-width: 1px;"/><path class="ygrid crisp" transform="translate(0,252.18)" d="M80,0h1240" style="stroke: rgb(221, 221, 221); stroke-opacity: 1; stroke-width: 1px;"/><path class="ygrid crisp" transform="translate(0,204.29)" d="M80,0h1240" style="stroke: rgb(221, 221, 221); stroke-opacity: 1; stroke-width: 1px;"/><path class="ygrid crisp" transform="translate(0,156.39)" d="M80,0h1240" style="stroke: rgb(221, 221, 221); stroke-opacity: 1; stroke-width: 1px;"/><path class="ygrid crisp" transform="translate(0,108.5)" d="M80,0h1240" style="stroke: rgb(221, 221, 221); stroke-opacity: 1; stroke-width: 1px;"/></g></g><g class="zerolinelayer"><path class="xzl zl crisp" transform="translate(139.73,0)" d="M0,70v710" style="stroke: rgb(235, 240, 248); stroke-opacity: 1; stroke-width: 2px;"/></g><path class="xlines-below"/><path class="ylines-below"/><g class="overlines-below"/><g class="xaxislayer-below"/><g class="yaxislayer-below"/><g class="overaxes-below"/><g class="plot" transform="translate(80,70)" clip-path="url(#clip2e347axyplot)"><g class="scatterlayer mlayer"><g class="trace scatter trace8b17f6" style="stroke-miterlimit: 2; opacity: 1;"><g class="fills"/><g class="errorbars"/><g class="lines"/><g class="points"><path class="point" transform="translate(156.43,661.11)" d="M5.41,0A5.41,5.41 0 1,1 0,-5.41A5.41,5.41 0 0,1 5.41,0Z" style="opacity: 0.7; stroke-width: 1px; fill: rgb(99, 110, 250); fill-opacity: 1; stroke: rgb(0, 0, 0); stroke-opacity: 1;"/><path class="point" transform="translate(332.79,613.21)" d="M4.25,0A4.25,4.25 0 1,1 0,-4.25A4.25,4.25 0 0,1 4.25,0Z" style="opacity: 0.7; stroke-width: 1px; fill: rgb(99, 110, 250); fill-opacity: 1; stroke: rgb(0, 0, 0); stroke-opacity: 1;"/><path class="point" transform="translate(183.77,565.32)" d="M5.75,0A5.75,5.75 0 1,1 0,-5.75A5.75,5.75 0 0,1 5.75,0Z" style="opacity: 0.7; stroke-width: 1px; fill: rgb(99, 110, 250); fill-opacity: 1; stroke: rgb(0, 0, 0); stroke-opacity: 1;"/><path class="point" transform="translate(65,517.43)" d="M1.88,0A1.88,1.88 0 1,1 0,-1.88A1.88,1.88 0 0,1 1.88,0Z" style="opacity: 0.7; stroke-width: 1px; fill: rgb(99, 110, 250); fill-opacity: 1; stroke: rgb(0, 0, 0); stroke-opacity: 1;"/><path class="point" transform="translate(151.88,469.54)" d="M4.35,0A4.35,4.35 0 1,1 0,-4.35A4.35,4.35 0 0,1 4.35,0Z" style="opacity: 0.7; stroke-width: 1px; fill: rgb(99, 110, 250); fill-opacity: 1; stroke: rgb(0, 0, 0); stroke-opacity: 1;"/><path class="point" transform="translate(66.49,421.64)" d="M0.97,0A0.97,0.97 0 1,1 0,-0.97A0.97,0.97 0 0,1 0.97,0Z" style="opacity: 0.7; stroke-width: 1px; fill: rgb(99, 110, 250); fill-opacity: 1; stroke: rgb(0, 0, 0); stroke-opacity: 1;"/><path class="point" transform="translate(227.76,373.75)" d="M6.31,0A6.31,6.31 0 1,1 0,-6.31A6.31,6.31 0 0,1 6.31,0Z" style="opacity: 0.7; stroke-width: 1px; fill: rgb(99, 110, 250); fill-opacity: 1; stroke: rgb(0, 0, 0); stroke-opacity: 1;"/><path class="point" transform="translate(154.56,325.86)" d="M5.25,0A5.25,5.25 0 1,1 0,-5.25A5.25,5.25 0 0,1 5.25,0Z" style="opacity: 0.7; stroke-width: 1px; fill: rgb(99, 110, 250); fill-opacity: 1; stroke: rgb(0, 0, 0); stroke-opacity: 1;"/><path class="point" transform="translate(505.21,277.96)" d="M8.22,0A8.22,8.22 0 1,1 0,-8.22A8.22,8.22 0 0,1 8.22,0Z" style="opacity: 0.7; stroke-width: 1px; fill: rgb(99, 110, 250); fill-opacity: 1; stroke: rgb(0, 0, 0); stroke-opacity: 1;"/><path class="point" transform="translate(88.42,230.07)" d="M3.16,0A3.16,3.16 0 1,1 0,-3.16A3.16,3.16 0 0,1 3.16,0Z" style="opacity: 0.7; stroke-width: 1px; fill: rgb(99, 110, 250); fill-opacity: 1; stroke: rgb(0, 0, 0); stroke-opacity: 1;"/><path class="point" transform="translate(1162.19,182.18)" d="M14.14,0A14.14,14.14 0 1,1 0,-14.14A14.14,14.14 0 0,1 14.14,0Z" style="opacity: 0.7; stroke-width: 1px; fill: rgb(99, 110, 250); fill-opacity: 1; stroke: rgb(0, 0, 0); stroke-opacity: 1;"/><path class="point" transform="translate(147.14,134.29)" d="M4.59,0A4.59,4.59 0 1,1 0,-4.59A4.59,4.59 0 0,1 4.59,0Z" style="opacity: 0.7; stroke-width: 1px; fill: rgb(99, 110, 250); fill-opacity: 1; stroke: rgb(0, 0, 0); stroke-opacity: 1;"/><path class="point" transform="translate(90.62,86.39)" d="M2.31,0A2.31,2.31 0 1,1 0,-2.31A2.31,2.31 0 0,1 2.31,0Z" style="opacity: 0.7; stroke-width: 1px; fill: rgb(99, 110, 250); fill-opacity: 1; stroke: rgb(0, 0, 0); stroke-opacity: 1;"/><path class="point" transform="translate(66.49,38.5)" d="M0.97,0A0.97,0.97 0 1,1 0,-0.97A0.97,0.97 0 0,1 0.97,0Z" style="opacity: 0.7; stroke-width: 1px; fill: rgb(99, 110, 250); fill-opacity: 1; stroke: rgb(0, 0, 0); stroke-opacity: 1;"/></g><g class="text"><g class="textpoint" transform="translate(0,18.264767731252338)"><text x="156.43" y="661.11" text-anchor="middle" style="font-family: Arial; font-size: 14px; fill: rgb(42, 63, 95); fill-opacity: 1; white-space: pre;"><tspan class="line" dy="0em" x="156.43" y="661.11">#BarkWeek</tspan><tspan class="line" dy="1.3em" x="156.43" y="661.11">​<tspan style="font-size:70%" dy="0.3em">Retweets: 3506, Likes: 18189</tspan><tspan dy="-0.21em">​</tspan></tspan></text></g><g class="textpoint" transform="translate(0,16.807376817000282)"><text x="332.79" y="613.21" text-anchor="middle" style="font-family: Arial; font-size: 14px; fill: rgb(42, 63, 95); fill-opacity: 1; white-space: pre;"><tspan class="line" dy="0em" x="332.79" y="613.21">#BellLetsTalk</tspan><tspan class="line" dy="1.3em" x="332.79" y="613.21">​<tspan style="font-size:70%" dy="0.3em">Retweets: 9900, Likes: 11196</tspan><tspan dy="-0.21em">​</tspan></tspan></text></g><g class="textpoint" transform="translate(0,18.682019712059404)"><text x="183.77" y="565.32" text-anchor="middle" style="font-family: Arial; font-size: 14px; fill: rgb(42, 63, 95); fill-opacity: 1; white-space: pre;"><tspan class="line" dy="0em" x="183.77" y="565.32">#Canada150</tspan><tspan class="line" dy="1.3em" x="183.77" y="565.32">​<tspan style="font-size:70%" dy="0.3em">Retweets: 4497, Likes: 20502</tspan><tspan dy="-0.21em">​</tspan></tspan></text></g><g class="textpoint" transform="translate(0,13.855335484808197)"><text x="65" y="517.43" text-anchor="middle" style="font-family: Arial; font-size: 14px; fill: rgb(42, 63, 95); fill-opacity: 1; white-space: pre;"><tspan class="line" dy="0em" x="65" y="517.43">#FinalFur</tspan><tspan class="line" dy="1.3em" x="65" y="517.43">​<tspan style="font-size:70%" dy="0.3em">Retweets: 191, Likes: 2205</tspan><tspan dy="-0.21em">​</tspan></tspan></text></g><g class="textpoint" transform="translate(0,16.941495315202175)"><text x="151.88" y="469.54" text-anchor="middle" style="font-family: Arial; font-size: 14px; fill: rgb(42, 63, 95); fill-opacity: 1; white-space: pre;"><tspan class="line" dy="0em" x="151.88" y="469.54">#K9VeteransDay</tspan><tspan class="line" dy="1.3em" x="151.88" y="469.54">​<tspan style="font-size:70%" dy="0.3em">Retweets: 3341, Likes: 11769</tspan><tspan dy="-0.21em">​</tspan></tspan></text></g><g class="textpoint" transform="translate(0,12.717323835172436)"><text x="66.49" y="421.64" text-anchor="middle" style="font-family: Arial; font-size: 14px; fill: rgb(42, 63, 95); fill-opacity: 1; white-space: pre;"><tspan class="line" dy="0em" x="66.49" y="421.64">#NoDaysOff</tspan><tspan class="line" dy="1.3em" x="66.49" y="421.64">​<tspan style="font-size:70%" dy="0.3em">Retweets: 245, Likes: 589</tspan><tspan dy="-0.21em">​</tspan></tspan></text></g><g class="textpoint" transform="translate(0,19.38230060543343)"><text x="227.76" y="373.75" text-anchor="middle" style="font-family: Arial; font-size: 14px; fill: rgb(42, 63, 95); fill-opacity: 1; white-space: pre;"><tspan class="line" dy="0em" x="227.76" y="373.75">#PrideMonth</tspan><tspan class="line" dy="1.3em" x="227.76" y="373.75">​<tspan style="font-size:70%" dy="0.3em">Retweets: 6092, Likes: 24695</tspan><tspan dy="-0.21em">​</tspan></tspan></text></g><g class="textpoint" transform="translate(0,18.068333803994992)"><text x="154.56" y="325.86" text-anchor="middle" style="font-family: Arial; font-size: 14px; fill: rgb(42, 63, 95); fill-opacity: 1; white-space: pre;"><tspan class="line" dy="0em" x="154.56" y="325.86">#PrideMonthPuppo</tspan><tspan class="line" dy="1.3em" x="154.56" y="325.86">​<tspan style="font-size:70%" dy="0.3em">Retweets: 3438, Likes: 17148</tspan><tspan dy="-0.21em">​</tspan></tspan></text></g><g class="textpoint" transform="translate(0,21.77169179953052)"><text x="505.21" y="277.96" text-anchor="middle" style="font-family: Arial; font-size: 14px; fill: rgb(42, 63, 95); fill-opacity: 1; white-space: pre;"><tspan class="line" dy="0em" x="505.21" y="277.96">#ScienceMarch</tspan><tspan class="line" dy="1.3em" x="505.21" y="277.96">​<tspan style="font-size:70%" dy="0.3em">Retweets: 16151, Likes: 41936</tspan><tspan dy="-0.21em">​</tspan></tspan></text></g><g class="textpoint" transform="translate(0,15.444420603365659)"><text x="88.42" y="230.07" text-anchor="middle" style="font-family: Arial; font-size: 14px; fill: rgb(42, 63, 95); fill-opacity: 1; white-space: pre;"><tspan class="line" dy="0em" x="88.42" y="230.07">#WKCDogShow</tspan><tspan class="line" dy="1.3em" x="88.42" y="230.07">​<tspan style="font-size:70%" dy="0.3em">Retweets: 1040, Likes: 6184</tspan><tspan dy="-0.21em">​</tspan></tspan></text></g><g class="textpoint" transform="translate(0,29.17766952966369)"><text x="1162.19" y="182.18" text-anchor="middle" style="font-family: Arial; font-size: 14px; fill: rgb(42, 63, 95); fill-opacity: 1; white-space: pre;"><tspan class="line" dy="0em" x="1162.19" y="182.18">#WomensMarch</tspan><tspan class="line" dy="1.3em" x="1162.19" y="182.18">​<tspan style="font-size:70%" dy="0.3em">Retweets: 39970, Likes: 124209</tspan><tspan dy="-0.21em">​</tspan></tspan></text></g><g class="textpoint" transform="translate(0,17.23678998088251)"><text x="147.14" y="134.29" text-anchor="middle" style="font-family: Arial; font-size: 14px; fill: rgb(42, 63, 95); fill-opacity: 1; white-space: pre;"><tspan class="line" dy="0em" x="147.14" y="134.29">#dogsatpollingstations</tspan><tspan class="line" dy="1.3em" x="147.14" y="134.29">​<tspan style="font-size:70%" dy="0.3em">Retweets: 3169, Likes: 13081</tspan><tspan dy="-0.21em">​</tspan></tspan></text></g><g class="textpoint" transform="translate(0,14.391436432046449)"><text x="90.62" y="86.39" text-anchor="middle" style="font-family: Arial; font-size: 14px; fill: rgb(42, 63, 95); fill-opacity: 1; white-space: pre;"><tspan class="line" dy="0em" x="90.62" y="86.39">#notallpuppers</tspan><tspan class="line" dy="1.3em" x="90.62" y="86.39">​<tspan style="font-size:70%" dy="0.3em">Retweets: 1120, Likes: 3323</tspan><tspan dy="-0.21em">​</tspan></tspan></text></g><g class="textpoint" transform="translate(0,12.717323835172436)"><text x="66.49" y="38.5" text-anchor="middle" style="font-family: Arial; font-size: 14px; fill: rgb(42, 63, 95); fill-opacity: 1; white-space: pre;"><tspan class="line" dy="0em" x="66.49" y="38.5">#swole</tspan><tspan class="line" dy="1.3em" x="66.49" y="38.5">​<tspan style="font-size:70%" dy="0.3em">Retweets: 245, Likes: 589</tspan><tspan dy="-0.21em">​</tspan></tspan></text></g></g></g></g></g><g class="overplot"/><path class="xlines-above crisp" d="M0,0" style="fill: none;"/><path class="ylines-above crisp" d="M0,0" style="fill: none;"/><g class="overlines-above"/><g class="xaxislayer-above"/><g class="yaxislayer-above"/><g class="overaxes-above"/></g></g><g class="polarlayer"/><g class="smithlayer"/><g class="ternarylayer"/><g class="geolayer"/><g class="funnelarealayer"/><g class="pielayer"/><g class="iciclelayer"/><g class="treemaplayer"/><g class="sunburstlayer"/><g class="glimages"/><defs id="topdefs-2e347a"><g class="clips"/></defs><g class="layer-above"><g class="imagelayer"/><g class="shapelayer"><path data-index="0" fill-rule="evenodd" d="M80,98.92L1320,98.92" clip-path="url(#clip2e347ay)" style="opacity: 1; stroke: rgb(42, 63, 95); stroke-opacity: 1; fill: rgb(0, 0, 0); fill-opacity: 0; stroke-width: 2px;"/><path data-index="1" fill-rule="evenodd" d="M80,779L1320,779" clip-path="url(#clip2e347ay)" style="opacity: 1; stroke: rgb(42, 63, 95); stroke-opacity: 1; fill: rgb(0, 0, 0); fill-opacity: 0; stroke-width: 2px;"/></g></g><g class="infolayer"><g class="g-gtitle"><text class="gtitle" x="700" y="35" text-anchor="middle" dy="0em" style="font-family: Arial; font-size: 20px; fill: rgb(42, 63, 95); opacity: 1; font-weight: normal; white-space: pre;"><tspan class="line" dy="0em" x="700" y="35">Which Hashtag generated the highest user engagement?</tspan><tspan class="line" dy="1.3em" x="700" y="35">​<tspan style="font-size:70%" dy="-0.6em">Increasing retweets from left to right. Likes are represented by dot size.</tspan><tspan dy="0.42em">​</tspan></tspan></text></g><g class="g-xtitle"/><g class="g-ytitle"/><g class="annotation" data-index="0" style="opacity: 1;"><g class="annotation-text-g" transform="rotate(0,1219.5,88.92)"><g class="cursor-pointer" transform="translate(1119,79)"><rect class="bg" x="0.5" y="0.5" width="200" height="19" style="stroke-width: 1px; stroke: rgb(0, 0, 0); stroke-opacity: 0; fill: rgb(0, 0, 0); fill-opacity: 0;"/><text class="annotation-text" text-anchor="middle" x="100.25" y="14.5" style="font-family: Arial; font-size: 14px; fill: rgb(42, 63, 95); fill-opacity: 1; white-space: pre;"> Increasing average retweets -></text></g></g></g><g class="annotation" data-index="1" style="opacity: 1;"><g class="annotation-text-g" transform="rotate(0,1219,769)"><g class="cursor-pointer" transform="translate(1118,759)"><rect class="bg" x="0.5" y="0.5" width="201" height="19" style="stroke-width: 1px; stroke: rgb(0, 0, 0); stroke-opacity: 0; fill: rgb(0, 0, 0); fill-opacity: 0;"/><text class="annotation-text" text-anchor="middle" x="100.90625" y="14.5" style="font-family: Arial; font-size: 14px; fill: rgb(42, 63, 95); fill-opacity: 1; white-space: pre;"> Increasing Average retweets -></text></g></g></g></g></svg>